<?xml version="1.0" encoding="UTF-8" standalone="no"?>
<!-- Created with Inkscape (http://www.inkscape.org/) -->

<svg
   xmlns:dc="http://purl.org/dc/elements/1.1/"
   xmlns:cc="http://creativecommons.org/ns#"
   xmlns:rdf="http://www.w3.org/1999/02/22-rdf-syntax-ns#"
   xmlns:svg="http://www.w3.org/2000/svg"
   xmlns="http://www.w3.org/2000/svg"
   xmlns:sodipodi="http://sodipodi.sourceforge.net/DTD/sodipodi-0.dtd"
   xmlns:inkscape="http://www.inkscape.org/namespaces/inkscape"
   id="svg2"
   version="1.1"
   inkscape:version="0.91 r"
   xml:space="preserve"
   width="484.42938"
   height="122.55283"
   viewBox="0 0 484.42938 122.55283"
   sodipodi:docname="logo.svg"><metadata
     id="metadata8"><rdf:RDF><cc:Work
         rdf:about=""><dc:format>image/svg+xml</dc:format><dc:type
           rdf:resource="http://purl.org/dc/dcmitype/StillImage" /><dc:title></dc:title></cc:Work></rdf:RDF></metadata><defs
     id="defs6"><clipPath
       clipPathUnits="userSpaceOnUse"
       id="clipPath16"><path
         d="m 0,841.89 595.275,0 L 595.275,0 0,0 0,841.89 Z"
         id="path18"
         inkscape:connector-curvature="0" /></clipPath></defs><sodipodi:namedview
     pagecolor="#ffffff"
     bordercolor="#666666"
     borderopacity="1"
     objecttolerance="10"
     gridtolerance="10"
     guidetolerance="10"
     inkscape:pageopacity="0"
     inkscape:pageshadow="2"
     inkscape:window-width="1544"
     inkscape:window-height="787"
     id="namedview4"
     showgrid="false"
     fit-margin-top="0"
     fit-margin-left="0"
     fit-margin-right="0"
     fit-margin-bottom="0"
     inkscape:zoom="0.22425732"
     inkscape:cx="237.10725"
     inkscape:cy="25.781935"
     inkscape:window-x="0"
     inkscape:window-y="0"
     inkscape:window-maximized="0"
     inkscape:current-layer="g10" /><g
     id="g10"
     inkscape:groupmode="layer"
     inkscape:label="Logotyp New"
     transform="matrix(1.25,0,0,-1.25,-134.93962,622.95213)"><g
       id="g12"><g
         id="g14"
         clip-path="url(#clipPath16)"><g
           id="g20"
           transform="translate(107.9517,475.8359)"><path
             d="m 0,0 0,-75.505 45.507,0 0,0.005 c 2.866,0 5.326,0.114 7.39,0.343 2.037,0.224 3.683,0.554 4.94,0.987 1.209,0.419 2.289,1.015 3.243,1.792 0.949,0.777 1.776,1.743 2.482,2.899 l 0.006,0.003 c 0.474,0.772 0.869,1.557 1.181,2.355 0.304,0.785 0.53,1.592 0.672,2.421 l 0.006,0.014 c 0.156,0.85 0.272,1.992 0.35,3.419 0.079,1.482 0.119,3.226 0.119,5.233 l -0.006,0 c 0,2.474 -0.052,4.559 -0.151,6.248 -0.102,1.709 -0.25,3.042 -0.442,3.994 l -0.002,0 c -0.19,0.909 -0.487,1.768 -0.889,2.575 -0.404,0.808 -0.907,1.556 -1.51,2.246 l -0.002,-0.002 c -0.911,1.033 -2.05,1.928 -3.41,2.683 -1.404,0.778 -3.049,1.414 -4.929,1.904 l -4.706,1.229 4.702,1.251 c 2.157,0.574 3.979,1.307 5.465,2.201 1.433,0.862 2.55,1.87 3.352,3.026 l 0.006,0.011 c 0.821,1.169 1.442,2.655 1.864,4.453 0.434,1.859 0.652,4.048 0.652,6.56 0,2.191 -0.117,4.119 -0.35,5.783 -0.232,1.636 -0.571,3.02 -1.019,4.149 l -0.005,0.011 c -0.427,1.109 -1.013,2.113 -1.747,3.008 -0.737,0.899 -1.64,1.697 -2.699,2.391 l 0.002,0.002 c -0.773,0.5 -1.583,0.905 -2.438,1.219 -0.857,0.316 -1.752,0.54 -2.684,0.673 -0.984,0.141 -2.469,0.245 -4.459,0.315 C 48.439,-0.034 45.879,0 42.814,0 L 0,0 Z m 30.159,-60.208 c -0.304,0.012 -0.639,0.025 -1.012,0.045 l -1.226,0.059 0,1.22 0,14.231 0,1.285 1.286,0 1.425,0 c 1.366,0 2.519,-0.129 3.46,-0.389 1.08,-0.299 1.897,-0.78 2.448,-1.445 l -0.003,-0.002 c 0.523,-0.63 0.897,-1.54 1.126,-2.724 0.204,-1.061 0.305,-2.372 0.305,-3.928 0,-1.484 -0.107,-2.748 -0.326,-3.788 -0.24,-1.154 -0.629,-2.054 -1.166,-2.697 -0.561,-0.672 -1.356,-1.162 -2.384,-1.472 l 0,-0.006 c -0.902,-0.274 -1.997,-0.409 -3.284,-0.409 -0.074,0 -0.29,0.006 -0.649,0.02 m 1.391,31.663 -2.343,0 -1.286,0 0,1.285 0,10.874 0,1.295 1.301,-0.016 c 1.664,-0.019 2.951,-0.064 3.856,-0.131 1.091,-0.081 1.828,-0.221 2.207,-0.419 l -10e-4,-10e-4 c 0.93,-0.447 1.616,-1.211 2.059,-2.291 0.392,-0.953 0.586,-2.151 0.586,-3.591 0,-1.14 -0.112,-2.139 -0.334,-2.993 -0.244,-0.94 -0.627,-1.703 -1.143,-2.287 -0.537,-0.605 -1.243,-1.051 -2.117,-1.337 -0.79,-0.259 -1.718,-0.388 -2.785,-0.388"
             style="fill:#0994dc;fill-opacity:1;fill-rule:nonzero;stroke:none"
             id="path22"
             inkscape:connector-curvature="0" /></g><g
           id="g24"
           transform="translate(182.9463,450.3354)"><path
             d="m 0,0 0,-49.997 27.868,0 0,38.844 L 0,0 Z"
             style="fill:#0994dc;fill-opacity:1;fill-rule:nonzero;stroke:none"
             id="path26"
             inkscape:connector-curvature="0" /></g><g
           id="g28"
           transform="translate(259.667,456.3574)"><path
             d="m 0,0 0.099,-0.541 28.179,-10.722 0,15.04 c 0,1.541 -0.093,2.938 -0.272,4.188 -0.183,1.249 -0.448,2.358 -0.799,3.322 -0.343,0.947 -0.788,1.818 -1.335,2.618 -0.547,0.797 -1.195,1.522 -1.948,2.178 -0.782,0.677 -1.61,1.241 -2.481,1.69 -0.859,0.444 -1.762,0.777 -2.707,0.996 -1.002,0.23 -2.295,0.406 -3.882,0.527 -1.584,0.119 -3.466,0.18 -5.652,0.18 l -28.754,0 c -2.001,0 -3.765,-0.067 -5.289,-0.196 -1.525,-0.13 -2.8,-0.319 -3.819,-0.565 l -0.004,-0.005 c -1.012,-0.241 -1.936,-0.573 -2.768,-0.992 -0.834,-0.42 -1.588,-0.928 -2.261,-1.524 l 0.003,-0.003 c -1.434,-1.276 -2.514,-3.001 -3.242,-5.173 -0.753,-2.25 -1.13,-4.99 -1.13,-8.217 0,-2.524 0.105,-4.702 0.312,-6.538 0.206,-1.808 0.506,-3.283 0.901,-4.426 0.385,-1.112 0.955,-2.178 1.711,-3.199 0.764,-1.033 1.728,-2.025 2.891,-2.978 0.795,-0.649 1.87,-1.325 3.226,-2.021 1.405,-0.722 3.092,-1.464 5.06,-2.225 l 0,10e-4 16.359,-6.168 c 1.613,-0.608 2.944,-1.18 3.996,-1.719 1.128,-0.577 1.947,-1.132 2.456,-1.663 0.554,-0.582 0.963,-1.349 1.227,-2.295 0.235,-0.848 0.353,-1.856 0.353,-3.02 l 0.006,0 c 0,-2.21 -0.388,-3.916 -1.166,-5.116 -0.89,-1.376 -2.206,-2.064 -3.947,-2.064 -1.726,0 -3.043,0.657 -3.941,1.966 -0.791,1.153 -1.19,2.796 -1.19,4.921 l 0,2.301 -28.245,10.719 0.22,-17.533 c 0.023,-1.871 0.092,-3.54 0.222,-5.017 0.121,-1.405 0.298,-2.564 0.539,-3.478 0.232,-0.875 0.581,-1.717 1.039,-2.523 0.466,-0.821 1.048,-1.606 1.745,-2.356 l 0.019,-0.019 c 0.722,-0.811 1.521,-1.497 2.393,-2.056 0.878,-0.565 1.833,-1.005 2.861,-1.321 2.165,-0.666 5.28,-0.998 9.346,-0.998 l 0,0.004 29.379,0 c 1.896,0 3.597,0.083 5.103,0.248 1.511,0.168 2.844,0.412 4,0.735 l 0,10e-4 c 1.128,0.318 2.174,0.735 3.137,1.254 0.956,0.513 1.835,1.131 2.642,1.847 0.724,0.655 1.337,1.361 1.833,2.117 0.494,0.753 0.889,1.573 1.177,2.456 l 0.002,0 c 0.293,0.912 0.52,2.015 0.674,3.308 0.157,1.303 0.236,2.796 0.236,4.475 0,2.803 -0.048,5.202 -0.138,7.194 -0.093,2.048 -0.23,3.742 -0.412,5.079 l -0.002,0 c -0.187,1.29 -0.438,2.435 -0.758,3.433 -0.31,0.969 -0.684,1.798 -1.12,2.483 l -0.004,0 c -0.868,1.364 -2.347,2.717 -4.435,4.055 -2.186,1.402 -4.997,2.763 -8.426,4.085 l -0.003,-0.004 -14.192,5.426 -0.004,0.006 c -1.785,0.689 -3.248,1.295 -4.382,1.812 -1.194,0.544 -2.046,1.004 -2.552,1.374 -0.625,0.458 -1.092,1.043 -1.399,1.752 -0.292,0.667 -0.435,1.425 -0.435,2.269 l 0.005,0 c 0,0.678 0.115,1.308 0.345,1.886 0.232,0.587 0.581,1.126 1.04,1.613 l 0.003,-0.002 c 0.461,0.487 0.982,0.859 1.561,1.111 l 0,0.002 c 0.586,0.255 1.215,0.384 1.883,0.384 l 0,-0.005 c 1.34,0 2.442,-0.39 3.297,-1.166 C -0.794,2.463 -0.252,1.392 0,0"
             style="fill:#0994dc;fill-opacity:1;fill-rule:nonzero;stroke:none"
             id="path30"
             inkscape:connector-curvature="0" /></g><g
           id="g32"
           transform="translate(299.373,459.8403)"><path
             d="m 0,0 0.005,0 0,-43.513 L 0,-43.523 c -0.055,-5.526 1.402,-9.602 4.371,-12.223 3.007,-2.658 7.635,-3.912 13.879,-3.763 l 0.03,0.005 29.965,0 0,-0.005 c 3.159,0 5.875,0.329 8.149,0.985 2.2,0.634 3.979,1.574 5.336,2.817 1.346,1.234 2.363,2.844 3.047,4.834 0.711,2.063 1.066,4.516 1.066,7.36 l -0.006,0 0,43.805 c 0,2.679 -0.342,5.01 -1.026,6.995 -0.663,1.926 -1.647,3.529 -2.951,4.81 -1.324,1.279 -2.982,2.246 -4.978,2.896 -2.044,0.664 -4.446,0.998 -7.212,0.998 l -33.498,0 c -1.513,0 -2.891,-0.088 -4.128,-0.26 C 10.812,15.561 9.701,15.305 8.716,14.968 7.745,14.637 6.844,14.208 6.019,13.681 5.191,13.153 4.422,12.514 3.709,11.766 L 3.699,11.755 C 3.03,11.069 2.455,10.332 1.975,9.553 1.498,8.777 1.125,7.972 0.857,7.143 L 0.855,7.144 C 0.581,6.284 0.37,5.255 0.225,4.063 0.076,2.838 0,1.481 0,0 m 27.869,-37.169 0,30.648 c 0,1.151 0.079,2.152 0.239,3.005 0.175,0.937 0.45,1.698 0.82,2.286 0.419,0.663 0.987,1.161 1.699,1.491 0.659,0.305 1.425,0.458 2.295,0.458 l 0,-0.005 c 0.888,0 1.656,-0.143 2.306,-0.43 0.724,-0.321 1.296,-0.808 1.72,-1.466 l 0.01,-0.015 c 0.362,-0.581 0.626,-1.339 0.791,-2.274 0.149,-0.848 0.226,-1.866 0.226,-3.05 l 0,-30.648 c 0,-1.164 -0.082,-2.18 -0.242,-3.045 -0.174,-0.95 -0.452,-1.715 -0.824,-2.293 -0.419,-0.652 -0.989,-1.137 -1.706,-1.459 -0.659,-0.295 -1.42,-0.442 -2.281,-0.442 -0.869,0 -1.635,0.153 -2.295,0.457 -0.712,0.33 -1.28,0.828 -1.699,1.493 -0.369,0.587 -0.645,1.351 -0.82,2.287 -0.158,0.856 -0.239,1.858 -0.239,3.002"
             style="fill:#0994dc;fill-opacity:1;fill-rule:nonzero;stroke:none"
             id="path34"
             inkscape:connector-curvature="0" /></g><g
           id="g36"
           transform="translate(376.4707,475.8311)"><path
             d="m 0,0 0,-75.495 25.853,0 0,43.962 14.244,-43.962 26.36,0 0,75.495 -25.975,0 0,-24.796 0.837,-16.742 L 28.364,0 0,0 Z"
             style="fill:#0994dc;fill-opacity:1;fill-rule:nonzero;stroke:none"
             id="path38"
             inkscape:connector-curvature="0" /></g><g
           id="g40"
           transform="translate(210.8145,446.8237)"><path
             d="M 0,0 C -28.2,8.919 -38.924,27.51 -44.627,51.538 -32.537,40.586 -17.25,29.469 0,29.171 L 0,0 Z"
             style="fill:#a7a5a6;fill-opacity:1;fill-rule:evenodd;stroke:none"
             id="path42"
             inkscape:connector-curvature="0" /></g><g
           id="g44"
           transform="translate(450.8682,446.8237)"><path
             d="M 0,0 C 28.2,8.919 38.925,27.51 44.627,51.538 32.538,40.586 17.251,29.469 0,29.171 L 0,0 Z"
             style="fill:#a7a5a6;fill-opacity:1;fill-rule:evenodd;stroke:none"
             id="path46"
             inkscape:connector-curvature="0" /></g></g></g></g></svg>